<?xml version="1.0" encoding="utf-8"?>
<!-- Generator: Adobe Illustrator 22.1.0, SVG Export Plug-In . SVG Version: 6.00 Build 0)  -->
<svg version="1.1" id="Warstwa_1" xmlns="http://www.w3.org/2000/svg" xmlns:xlink="http://www.w3.org/1999/xlink" x="0px" y="0px"
	 viewBox="0 0 155 76" style="enable-background:new 0 0 155 76;" xml:space="preserve">
<style type="text/css">
	.st0{fill:url(#C_1_);}
	.st1{fill:url(#A_1_);}
	.st2{fill:url(#L_1_);}
	.st3{fill:url(#kropka_1_);}
	.st4{fill:url(#P_1_);}
	.st5{fill:url(#Lmale_1_);}
	.st6{fill:url(#SVGID_1_);}
	.st7{fill:url(#LeweOko_1_);}
	.st8{fill:url(#PraweOko_1_);}
</style>
<linearGradient id="C_1_" gradientUnits="userSpaceOnUse" x1="78.5517" y1="34.3412" x2="78.5517" y2="11.1241" gradientTransform="matrix(1 0 0 -1 0 78.6)">
	<stop  offset="0" style="stop-color:#315A80"/>
	<stop  offset="1" style="stop-color:#03233E"/>
</linearGradient>
<path id="C" class="st0" d="M89.7,46.9V46c0-0.9-0.8-1.7-1.7-1.7H78H77h-2.3c-3.9,0-7.2,3.2-7.2,7.2v8.8c0,3.9,3.2,7.2,7.2,7.2H78
	c0.5,0,0.9,0,1.4-0.1H88c0.9,0,1.7-0.8,1.7-1.7v-0.9c0-0.9-0.8-1.7-1.7-1.7h-3.3l0,0H74.1c-1.2,0-2.2-1-2.3-2.2
	c0-0.2-0.1-0.4-0.1-0.6v-9.1c0-0.1,0-0.2,0-0.4c0-0.1,0-0.1,0-0.2l0,0c0-1.2,1-2.2,2.2-2.2h10.7l0,0H88
	C88.9,48.6,89.7,47.8,89.7,46.9z"/>
<linearGradient id="A_1_" gradientUnits="userSpaceOnUse" x1="103.3019" y1="34.2615" x2="103.3019" y2="11.0445" gradientTransform="matrix(1 0 0 -1 0 78.6)">
	<stop  offset="0" style="stop-color:#2F5A7F"/>
	<stop  offset="1" style="stop-color:#03233E"/>
</linearGradient>
<path id="A" class="st1" d="M116.2,51.6c0-5-2-7.1-6.9-7.3c-0.1,0-0.2,0-0.3,0h-0.4l0,0l0,0h-3.3c-1.2,0-2.2,1-2.2,2.2l0,0
	c0,1.2,1,2.2,2.2,2.2h2.1h1.7h0.4l0.2,0l0,0c1.2,0.2,2,1.1,2.2,2.2h-2h-3.1H96.7c-3.5,0-6.3,2.8-6.3,6.3v3.9c0,3.5,2.8,6.3,6.3,6.3
	h13.3c3.5,0,6.3-2.8,6.3-6.3v-2.7v-1.4v-3.8v-1L116.2,51.6L116.2,51.6z M112,58v0.5v1.9c0,1.6-1.3,2.8-2.8,2.8H97.4
	c-1.6,0-2.8-1.3-2.8-2.8V58c0-1.6,1.3-2.8,2.8-2.8h10.3h1.4h2.8L112,58L112,58z"/>
<linearGradient id="L_1_" gradientUnits="userSpaceOnUse" x1="121.4813" y1="41.2705" x2="121.4813" y2="10.8852" gradientTransform="matrix(1 0 0 -1 0 78.6)">
	<stop  offset="0" style="stop-color:#2F5A7F"/>
	<stop  offset="1" style="stop-color:#03233E"/>
</linearGradient>
<path id="L" class="st2" d="M121.8,67.7h-0.6c-1,0-1.7-0.8-1.7-1.7V39c0-1,0.8-1.7,1.7-1.7h0.6c1,0,1.7,0.8,1.7,1.7v27
	C123.5,67,122.7,67.7,121.8,67.7z"/>
<linearGradient id="kropka_1_" gradientUnits="userSpaceOnUse" x1="127.1761" y1="14.9472" x2="127.1761" y2="11.1241" gradientTransform="matrix(1 0 0 -1 0 78.6)">
	<stop  offset="0" style="stop-color:#F6921F"/>
	<stop  offset="1" style="stop-color:#F16433"/>
</linearGradient>
<path id="kropka" class="st3" d="M127.4,67.5h-0.5c-1,0-1.7-0.8-1.7-1.7v-0.4c0-1,0.8-1.7,1.7-1.7h0.5c1,0,1.7,0.8,1.7,1.7v0.4
	C129.1,66.7,128.4,67.5,127.4,67.5z"/>
<linearGradient id="P_1_" gradientUnits="userSpaceOnUse" x1="138.2868" y1="26.0977" x2="138.2868" y2="6.7037" gradientTransform="matrix(1 0 0 -1 0 78.6)">
	<stop  offset="0" style="stop-color:#C5C5C5"/>
	<stop  offset="0" style="stop-color:#F6921F"/>
	<stop  offset="1" style="stop-color:#F15E2F"/>
	<stop  offset="1" style="stop-color:#000000"/>
</linearGradient>
<path id="P" class="st4" d="M141.7,52.5h-6.8c-2.5,0-4.6,2.1-4.6,4.6v5.5v0.4v7.4c0,0.8,0.7,1.6,1.6,1.6h0.2c0.8,0,1.6-0.7,1.6-1.6
	v-2.9h1.1c0.1,0,0.2,0,0.2,0h6.8c2.5,0,4.6-2.1,4.6-4.6v-5.8C146.3,54.5,144.2,52.5,141.7,52.5z M143.1,62.8c0,0.8-0.7,1.5-1.5,1.5
	h-3.3H135h-1.5v-1.5v-0.3v-1.9v-3.5c0-0.8,0.7-1.5,1.5-1.5h6.7c0.8,0,1.5,0.7,1.5,1.5V62.8L143.1,62.8z"/>
<linearGradient id="Lmale_1_" gradientUnits="userSpaceOnUse" x1="149.1984" y1="30.5181" x2="149.1984" y2="10.8852" gradientTransform="matrix(1 0 0 -1 0 78.6)">
	<stop  offset="0" style="stop-color:#C5C5C5"/>
	<stop  offset="0" style="stop-color:#F6921F"/>
	<stop  offset="1" style="stop-color:#F15E2F"/>
	<stop  offset="1" style="stop-color:#000000"/>
</linearGradient>
<path id="Lmale" class="st5" d="M149.2,67.7L149.2,67.7c-0.9,0-1.6-0.7-1.6-1.6V49.7c0-0.9,0.7-1.6,1.6-1.6l0,0
	c0.9,0,1.6,0.7,1.6,1.6v16.4C150.8,67,150.1,67.7,149.2,67.7z"/>
<linearGradient id="SVGID_1_" gradientUnits="userSpaceOnUse" x1="21.2424" y1="64.1455" x2="68.2204" y2="17.1676" gradientTransform="matrix(1 0 0 -1 0 78.6)">
	<stop  offset="0" style="stop-color:#C5C5C5"/>
	<stop  offset="0" style="stop-color:#F6921F"/>
	<stop  offset="1" style="stop-color:#F15E2F"/>
	<stop  offset="1" style="stop-color:#000000"/>
</linearGradient>
<path class="st6" d="M90.4,37.6L90,37.2c-1.3-1.3-5.7-3.5-17.9-9.5l-0.6-0.3c0-0.2,0-0.4,0-0.5c0.5-11.8-9.7-21.8-22.9-22.4
	C35.6,4,24.6,13,24,24.7c-0.1,0-0.2,0-0.4,0.1l-1.2,0.4c-12.8,4.4-17.4,6-18.8,7l-0.4,0.3c-0.3,0.2-0.5,0.6-0.4,0.9
	c0.1,0.2,0.3,0.4,0.6,0.5h0L4,34c1.2,0.3,3.9,0,10.5-1.2c0,0,0.1,0,0.2,0l0.6-0.1c2.5-0.4,5.7-1,9.4-1.6c1.4,4.7,4.5,8.9,8.7,11.8
	l-0.2,1.2c-3.1,16.4-4.1,22.2-3.8,24.4l0,0.6c0,0.5,0.3,0.9,0.7,1c0.3,0.1,0.7,0,0.9-0.3v0l0.4-0.5c1-1,2.3-4.1,5.2-11.9
	c0-0.1,0-0.1,0.1-0.2l0.3-0.8c1-2.8,2.3-6.1,3.7-10.2c1.9,0.6,3.9,0.9,6.1,1c1.2,0,2.3,0,3.5-0.1c1.2,3.7,2.2,6.9,3.1,9.5l0.2,0.7
	c0,0.1,0,0.1,0.1,0.2c2.5,7.5,3.6,10.5,4.5,11.5l0.4,0.5v0c0.2,0.3,0.6,0.4,0.9,0.4c0.4-0.1,0.6-0.4,0.7-0.9l0-0.6
	c0.4-2.1-0.4-7.6-2.7-23c5.8-2.3,10.4-6.5,12.6-11.9c3.2,1,5.9,1.8,8.2,2.5l0.6,0.2c0,0,0.1,0,0.2,0c6.5,2,9.2,2.7,10.4,2.5l0.5,0h0
	c0.3,0,0.6-0.2,0.7-0.4C90.8,38.2,90.7,37.8,90.4,37.6z M47.3,42.4c-10.2,0-18.5-7.3-18.5-16.3S37.1,9.8,47.3,9.8
	s18.5,7.3,18.5,16.3S57.6,42.4,47.3,42.4z"/>
<linearGradient id="LeweOko_1_" gradientUnits="userSpaceOnUse" x1="36.8505" y1="61.7856" x2="41.576" y2="57.0601" gradientTransform="matrix(1 0 0 -1 0 78.6)">
	<stop  offset="0" style="stop-color:#C5C5C5"/>
	<stop  offset="0" style="stop-color:#F6921F"/>
	<stop  offset="1" style="stop-color:#F15E2F"/>
	<stop  offset="1" style="stop-color:#000000"/>
</linearGradient>
<circle id="LeweOko" class="st7" cx="39.2" cy="19.2" r="3.3"/>
<linearGradient id="PraweOko_1_" gradientUnits="userSpaceOnUse" x1="52.9295" y1="61.7953" x2="57.655" y2="57.0698" gradientTransform="matrix(1 0 0 -1 0 78.6)">
	<stop  offset="0" style="stop-color:#C5C5C5"/>
	<stop  offset="0" style="stop-color:#F6921F"/>
	<stop  offset="1" style="stop-color:#F15E2F"/>
	<stop  offset="1" style="stop-color:#000000"/>
</linearGradient>
<circle id="PraweOko" class="st8" cx="55.3" cy="19.2" r="3.3"/>
</svg>
