<?xml version="1.0" encoding="utf-8"?>
<!-- Generator: Adobe Illustrator 22.1.0, SVG Export Plug-In . SVG Version: 6.00 Build 0)  -->
<svg version="1.1" id="Capa_1" xmlns="http://www.w3.org/2000/svg" xmlns:xlink="http://www.w3.org/1999/xlink" x="0px" y="0px"
	 viewBox="0 0 20 20" style="enable-background:new 0 0 20 20;" xml:space="preserve">
<style type="text/css">
	.st0{fill:#8A8A8A;}
</style>
<g>
	<path class="st0" d="M18.4,7.6h-0.1L10,0.5L1.8,7.6H1.6c-0.1,0-0.2,0.1-0.2,0.2v11.5c0,0.1,0.1,0.2,0.2,0.2h16.8
		c0.1,0,0.2-0.1,0.2-0.2V7.8C18.6,7.7,18.5,7.6,18.4,7.6z M10,2.4l6.7,5.8l-1.1,0.9L10,13.2L4.5,9.1L3.4,8.3L10,2.4z M17.1,18.1H2.9
		V9.8l7,5.1c0.1,0,0.2,0,0.2,0l7-5.1L17.1,18.1L17.1,18.1z"/>
</g>
</svg>
