<?xml version="1.0" encoding="utf-8"?>
<!-- Generator: Adobe Illustrator 22.1.0, SVG Export Plug-In . SVG Version: 6.00 Build 0)  -->
<svg version="1.1" id="Capa_1" xmlns="http://www.w3.org/2000/svg" xmlns:xlink="http://www.w3.org/1999/xlink" x="0px" y="0px"
	 viewBox="0 0 30 20" style="enable-background:new 0 0 30 20;" xml:space="preserve">
<style type="text/css">
	.st0{fill:#D4D4D4;}
</style>
<g>
	<path class="st0" d="M27.2,9.1C27,8.9,21.7,2.8,15,2.8C8.3,2.8,3,8.9,2.8,9.1c-0.4,0.5-0.4,1.2,0,1.8C3,11.1,8.3,17.2,15,17.2
		c6.7,0,12-6.1,12.2-6.3C27.6,10.4,27.6,9.6,27.2,9.1z M17.1,6.4c0.5-0.2,1.1,0,1.4,0.6c0.3,0.6,0.2,1.3-0.2,1.5
		c-0.5,0.2-1.1,0-1.4-0.6C16.5,7.4,16.6,6.7,17.1,6.4z M15,15c-4.7,0-8.6-3.6-10-5c0.9-1,3-2.9,5.7-4.1c-0.5,0.8-0.8,1.8-0.8,2.8
		c0,2.8,2.3,5.1,5.1,5.1s5.1-2.3,5.1-5.1c0-1-0.3-2-0.8-2.8C22,7.1,24.1,9,25,10C23.6,11.4,19.7,15,15,15z"/>
</g>
</svg>
