<?xml version="1.0" encoding="utf-8"?>
<!-- Generator: Adobe Illustrator 22.1.0, SVG Export Plug-In . SVG Version: 6.00 Build 0)  -->
<svg version="1.1" id="Warstwa_1" xmlns="http://www.w3.org/2000/svg" xmlns:xlink="http://www.w3.org/1999/xlink" x="0px" y="0px"
	 viewBox="0 0 658.8 211.4" style="enable-background:new 0 0 658.8 211.4;" xml:space="preserve">
<style type="text/css">
	.st0{fill:url(#C_1_);}
	.st1{fill:url(#A_1_);}
	.st2{fill:url(#L_1_);}
	.st3{fill:url(#kropka_1_);}
	.st4{fill:url(#P_1_);}
	.st5{fill:url(#Lmale_1_);}
	.st6{fill:url(#SVGID_1_);}
	.st7{fill:url(#LeweOko_1_);}
	.st8{fill:url(#PraweOko_1_);}
</style>
<image style="display:none;overflow:visible;enable-background:new    ;" width="877" height="478" xlink:href="F96F681B.jpg"  transform="matrix(0.4375 0 0 0.4375 101.6033 1.1932)">
</image>
<linearGradient id="C_1_" gradientUnits="userSpaceOnUse" x1="295.4" y1="125.5" x2="295.4" y2="183.8">
	<stop  offset="0" style="stop-color:#315A80"/>
	<stop  offset="1" style="stop-color:#03233E"/>
</linearGradient>
<path id="C" class="st0" d="M323.3,132.1v-2.3c0-2.3-1.9-4.3-4.3-4.3h-24.9h-2.7h-5.8c-9.9,0-18.1,8.1-18.1,18.1v22.1
	c0,9.9,8.1,18.1,18.1,18.1h8.5c1.2,0,2.3-0.1,3.4-0.3H319c2.3,0,4.3-1.9,4.3-4.3V177c0-2.3-1.9-4.3-4.3-4.3h-8.3l0,0h-26.4
	c-3,0-5.5-2.4-5.7-5.4c-0.1-0.5-0.2-1-0.2-1.5V143c0-0.3,0-0.6,0.1-1c0-0.2,0-0.3,0-0.5l0,0c0-3,2.4-5.4,5.4-5.4h26.8l0,0h8.4
	C321.3,136.3,323.3,134.4,323.3,132.1z"/>
<linearGradient id="A_1_" gradientUnits="userSpaceOnUse" x1="357.55" y1="125.7" x2="357.55" y2="184">
	<stop  offset="0" style="stop-color:#2F5A7F"/>
	<stop  offset="1" style="stop-color:#03233E"/>
</linearGradient>
<path id="A" class="st1" d="M390,144c-0.1-12.6-5-17.9-17.3-18.3c-0.2,0-0.4,0-0.7,0h-1.1l0,0l0,0h-8.4c-3,0-5.5,2.5-5.5,5.5l0,0
	c0,3,2.5,5.5,5.5,5.5h5.3h4.3h1.1l0.4,0.1l0,0c2.9,0.4,5.1,2.7,5.6,5.5h-5h-7.7h-25.6c-8.7,0-15.9,7.1-15.9,15.9v9.9
	c0,8.7,7.1,15.9,15.9,15.9h33.3c8.7,0,15.9-7.1,15.9-15.9v-6.7V158v-9.5V146L390,144L390,144z M379.4,160v1.2v4.7c0,3.9-3.2,7-7,7
	h-29.6c-3.9,0-7-3.2-7-7V160c0-3.9,3.2-7,7-7h25.9h3.6h7v7H379.4z"/>
<linearGradient id="L_1_" gradientUnits="userSpaceOnUse" x1="403.2" y1="108.1" x2="403.2" y2="184.4">
	<stop  offset="0" style="stop-color:#2F5A7F"/>
	<stop  offset="1" style="stop-color:#03233E"/>
</linearGradient>
<path id="L" class="st2" d="M403.9,184.4h-1.4c-2.4,0-4.3-1.9-4.3-4.3v-67.7c0-2.4,1.9-4.3,4.3-4.3h1.4c2.4,0,4.3,1.9,4.3,4.3v67.7
	C408.2,182.5,406.2,184.4,403.9,184.4z"/>
<linearGradient id="kropka_1_" gradientUnits="userSpaceOnUse" x1="417.5" y1="174.2" x2="417.5" y2="183.8">
	<stop  offset="0" style="stop-color:#F6921F"/>
	<stop  offset="1" style="stop-color:#F16433"/>
</linearGradient>
<path id="kropka" class="st3" d="M418.1,183.8h-1.2c-2.4,0-4.3-1.9-4.3-4.3v-1c0-2.4,1.9-4.3,4.3-4.3h1.2c2.4,0,4.3,1.9,4.3,4.3v1
	C422.4,181.9,420.5,183.8,418.1,183.8z"/>
<linearGradient id="P_1_" gradientUnits="userSpaceOnUse" x1="445.4" y1="146.2" x2="445.4" y2="194.9">
	<stop  offset="0" style="stop-color:#C5C5C5"/>
	<stop  offset="0" style="stop-color:#F6921F"/>
	<stop  offset="1" style="stop-color:#F15E2F"/>
	<stop  offset="1" style="stop-color:#000000"/>
</linearGradient>
<path id="P" class="st4" d="M454,146.2h-17.2c-6.3,0-11.5,5.2-11.5,11.5v13.7v0.9V191c0,2.1,1.7,3.9,3.9,3.9h0.4
	c2.1,0,3.9-1.7,3.9-3.9v-7.2h2.8c0.2,0,0.4,0,0.5,0H454c6.3,0,11.5-5.2,11.5-11.5v-14.6C465.5,151.3,460.3,146.2,454,146.2z
	 M457.5,172.1c0,2-1.7,3.7-3.7,3.7h-8.3h-8.4h-3.7v-3.7v-0.7v-4.8v-8.9c0-2,1.7-3.7,3.7-3.7h16.7c2,0,3.7,1.7,3.7,3.7L457.5,172.1
	L457.5,172.1z"/>
<linearGradient id="Lmale_1_" gradientUnits="userSpaceOnUse" x1="472.8" y1="135.1" x2="472.8" y2="184.4">
	<stop  offset="0" style="stop-color:#C5C5C5"/>
	<stop  offset="0" style="stop-color:#F6921F"/>
	<stop  offset="1" style="stop-color:#F15E2F"/>
	<stop  offset="1" style="stop-color:#000000"/>
</linearGradient>
<path id="Lmale" class="st5" d="M472.8,184.4L472.8,184.4c-2.2,0-4-1.8-4-4v-41.3c0-2.2,1.8-4,4-4l0,0c2.2,0,4,1.8,4,4v41.3
	C476.8,182.6,475,184.4,472.8,184.4z"/>
<linearGradient id="SVGID_1_" gradientUnits="userSpaceOnUse" x1="151.4913" y1="50.6587" x2="269.4571" y2="168.6244">
	<stop  offset="0" style="stop-color:#C5C5C5"/>
	<stop  offset="0" style="stop-color:#F6921F"/>
	<stop  offset="1" style="stop-color:#F15E2F"/>
	<stop  offset="1" style="stop-color:#000000"/>
</linearGradient>
<path class="st6" d="M325.1,108.7l-1-0.8c-3.3-3.2-14.2-8.7-45-23.8l-1.4-0.7c0-0.4,0.1-0.9,0.1-1.3c1.3-29.6-24.4-54.8-57.4-56.2
	c-32.8-1.4-60.4,21.1-62,50.4c-0.3,0-0.6,0.1-0.9,0.2l-3.1,1.1c-32.2,11-43.6,15-47.2,17.7l-1,0.7c-0.8,0.6-1.2,1.4-1,2.2
	c0.2,0.6,0.8,1.1,1.5,1.3h0.1l1.3,0.3c2.9,0.7,9.7-0.1,26.4-2.9c0.1,0,0.3,0,0.4,0l1.6-0.3c6.4-1.1,14.2-2.4,23.7-4.1
	c3.4,11.9,11.2,22.3,21.8,29.6l-0.5,3c-7.7,41.1-10.3,55.7-9.5,61.3l0.1,1.5c0.1,1.2,0.8,2.2,1.8,2.5c0.8,0.2,1.7-0.1,2.3-0.8v-0.1
	l1.1-1.2c2.6-2.6,5.9-10.3,13.1-29.8c0.1-0.2,0.1-0.3,0.2-0.5l0.7-1.9c2.6-7,5.7-15.4,9.3-25.5c4.8,1.4,9.9,2.2,15.2,2.4
	c3,0.1,5.9,0.1,8.7-0.2c3,9.4,5.5,17.3,7.7,23.9l0.6,1.8c0,0.2,0.1,0.3,0.2,0.5c6.2,18.9,9,26.4,11.3,29l1,1.2v0.1
	c0.6,0.7,1.4,1.1,2.2,0.9c0.9-0.2,1.5-1.1,1.7-2.3l0.1-1.5c0.9-5.2-1.1-19.1-6.9-57.7c14.5-5.7,26-16.4,31.7-29.9
	c8.1,2.5,14.9,4.6,20.6,6.4l1.6,0.5c0.1,0,0.3,0.1,0.4,0.1c16.4,5,23.1,6.7,26.1,6.4l1.3-0.1h0.1c0.8-0.1,1.4-0.4,1.7-1
	C326.1,110.3,325.8,109.4,325.1,108.7z M217,120.8c-25.7,0-46.5-18.3-46.5-40.9c0-22.6,20.8-40.9,46.5-40.9s46.5,18.3,46.5,40.9
	C263.5,102.5,242.7,120.8,217,120.8z"/>
<linearGradient id="LeweOko_1_" gradientUnits="userSpaceOnUse" x1="190.6659" y1="56.6034" x2="202.532" y2="68.4695">
	<stop  offset="0" style="stop-color:#C5C5C5"/>
	<stop  offset="0" style="stop-color:#F6921F"/>
	<stop  offset="1" style="stop-color:#F15E2F"/>
	<stop  offset="1" style="stop-color:#000000"/>
</linearGradient>
<circle id="LeweOko" class="st7" cx="196.6" cy="62.5" r="8.4"/>
<linearGradient id="PraweOko_1_" gradientUnits="userSpaceOnUse" x1="231.0409" y1="56.6034" x2="242.907" y2="68.4695">
	<stop  offset="0" style="stop-color:#C5C5C5"/>
	<stop  offset="0" style="stop-color:#F6921F"/>
	<stop  offset="1" style="stop-color:#F15E2F"/>
	<stop  offset="1" style="stop-color:#000000"/>
</linearGradient>
<circle id="PraweOko" class="st8" cx="237" cy="62.5" r="8.4"/>
</svg>
