<?xml version="1.0" encoding="iso-8859-1"?>
<!-- Generator: Adobe Illustrator 16.0.0, SVG Export Plug-In . SVG Version: 6.00 Build 0)  -->
<!DOCTYPE svg PUBLIC "-//W3C//DTD SVG 1.1//EN" "http://www.w3.org/Graphics/SVG/1.1/DTD/svg11.dtd">
<svg version="1.1" id="Capa_1" xmlns="http://www.w3.org/2000/svg" xmlns:xlink="http://www.w3.org/1999/xlink" x="0px" y="0px"
	 width="468.203px" height="468.203px" viewBox="0 0 468.203 468.203" style="enable-background:new 0 0 468.203 468.203;"
	 xml:space="preserve">
<g>
	<path d="M439.618,175.919h-2.86L234.672,0L32.585,175.919h-4.001c-2.518,0-4.563,2.045-4.563,4.569v283.146
		c0,2.523,2.045,4.568,4.563,4.568h411.034c2.519,0,4.563-2.045,4.563-4.568V180.488
		C444.182,177.964,442.137,175.919,439.618,175.919z M234.672,48.146l163.589,142.298l-28.152,22.006l-136.007,99.744L98.092,212.45
		l-27.388-20.572L234.672,48.146z M407.647,431.675H60.556V230.236l170.848,125.296c1.613,1.171,3.789,1.171,5.405,0
		l170.845-125.296v201.439H407.647z"/>
</g>
<g>
</g>
<g>
</g>
<g>
</g>
<g>
</g>
<g>
</g>
<g>
</g>
<g>
</g>
<g>
</g>
<g>
</g>
<g>
</g>
<g>
</g>
<g>
</g>
<g>
</g>
<g>
</g>
<g>
</g>
</svg>
